<svg width="49" height="48" viewBox="0 0 49 48" fill="none" xmlns="http://www.w3.org/2000/svg">
<rect x="1.16699" y="0.5" width="47" height="47" rx="7.5" fill="#CAD4DC"/>
<rect x="1.16699" y="0.5" width="47" height="47" rx="7.5" stroke="#0A3D62"/>
<path opacity="0.3" d="M16.667 16.4133V22.7867C16.667 28.12 20.067 33.0533 24.667 34.56C29.267 33.0533 32.667 28.1333 32.667 22.7867V16.4133L24.667 13.5867L16.667 16.4133ZM30.8003 21.1733L23.2537 28.72L18.5337 24L20.4137 22.12L23.2403 24.9467L28.8937 19.2933L30.8003 21.1733Z" fill="#0A3D62"/>
<path d="M24.6667 10.6666L14 14.6666V22.7866C14 29.52 18.5467 35.8 24.6667 37.3333C30.7867 35.8 35.3333 29.52 35.3333 22.7866V14.6666L24.6667 10.6666ZM32.6667 22.7866C32.6667 28.12 29.2667 33.0533 24.6667 34.56C20.0667 33.0533 16.6667 28.1333 16.6667 22.7866V16.4133L24.6667 13.5866L32.6667 16.4133V22.7866ZM20.4267 22.12L18.5333 24L23.2533 28.72L30.8 21.1733L28.92 19.2933L23.2667 24.9466L20.4267 22.12Z" fill="#0A3D62"/>
</svg>
