<svg width="48" height="48" viewBox="0 0 48 48" fill="none" xmlns="http://www.w3.org/2000/svg">
<rect x="0.5" y="0.5" width="47" height="47" rx="7.5" fill="#CAD4DC"/>
<rect x="0.5" y="0.5" width="47" height="47" rx="7.5" stroke="#0A3D62"/>
<path opacity="0.2" d="M36 24C36 26.3734 35.2962 28.6935 33.9776 30.6668C32.6591 32.6402 30.7849 34.1783 28.5922 35.0866C26.3995 35.9948 23.9867 36.2324 21.6589 35.7694C19.3312 35.3064 17.193 34.1635 15.5147 32.4853C13.8365 30.8071 12.6936 28.6689 12.2306 26.3411C11.7676 24.0133 12.0052 21.6005 12.9135 19.4078C13.8217 17.2151 15.3598 15.3409 17.3332 14.0224C19.3066 12.7038 21.6266 12 24 12C27.1826 12 30.2348 13.2643 32.4853 15.5147C34.7357 17.7652 36 20.8174 36 24Z" fill="#0A3D62"/>
<path d="M24 11C21.4288 11 18.9154 11.7624 16.7776 13.1909C14.6398 14.6194 12.9735 16.6497 11.9896 19.0251C11.0056 21.4006 10.7482 24.0144 11.2498 26.5362C11.7514 29.0579 12.9895 31.3743 14.8076 33.1924C16.6257 35.0105 18.9421 36.2486 21.4638 36.7502C23.9856 37.2518 26.5995 36.9944 28.9749 36.0104C31.3503 35.0265 33.3807 33.3603 34.8091 31.2224C36.2376 29.0846 37 26.5712 37 24C36.996 20.5534 35.6251 17.2491 33.188 14.812C30.7509 12.3749 27.4466 11.004 24 11ZM35 24C35.0009 25.0145 34.8608 26.0241 34.5838 27H29.77C30.0768 25.0118 30.0768 22.9882 29.77 21H34.5838C34.8608 21.9759 35.0009 22.9855 35 24ZM20.75 29H27.25C26.6097 31.0983 25.498 33.0223 24 34.625C22.5027 33.0218 21.3911 31.0979 20.75 29ZM20.2625 27C19.9191 25.0147 19.9191 22.9853 20.2625 21H27.7475C28.0909 22.9853 28.0909 25.0147 27.7475 27H20.2625ZM13 24C12.9991 22.9855 13.1392 21.9759 13.4163 21H18.23C17.9233 22.9882 17.9233 25.0118 18.23 27H13.4163C13.1392 26.0241 12.9991 25.0145 13 24ZM27.25 19H20.75C21.3903 16.9017 22.502 14.9777 24 13.375C25.4973 14.9782 26.6089 16.9021 27.25 19ZM33.7913 19H29.3388C28.7775 16.9412 27.8317 15.0071 26.5513 13.3C28.0984 13.6717 29.5469 14.3735 30.7974 15.3573C32.0479 16.3412 33.0709 17.5838 33.7963 19H33.7913ZM21.4488 13.3C20.1683 15.0071 19.2225 16.9412 18.6613 19H14.2038C14.9291 17.5838 15.9521 16.3412 17.2026 15.3573C18.4531 14.3735 19.9016 13.6717 21.4488 13.3ZM14.2038 29H18.6613C19.2225 31.0588 20.1683 32.9929 21.4488 34.7C19.9016 34.3283 18.4531 33.6265 17.2026 32.6427C15.9521 31.6588 14.9291 30.4162 14.2038 29ZM26.5513 34.7C27.8317 32.9929 28.7775 31.0588 29.3388 29H33.7963C33.0709 30.4162 32.0479 31.6588 30.7974 32.6427C29.5469 33.6265 28.0984 34.3283 26.5513 34.7Z" fill="#0A3D62"/>
</svg>
