<svg width="49" height="48" viewBox="0 0 49 48" fill="none" xmlns="http://www.w3.org/2000/svg">
<rect x="0.833008" y="0.5" width="47" height="47" rx="7.5" fill="#CAD4DC"/>
<rect x="0.833008" y="0.5" width="47" height="47" rx="7.5" stroke="#0A3D62"/>
<path opacity="0.4" d="M28.333 20C30.5421 20 32.333 18.2091 32.333 16C32.333 13.7909 30.5421 12 28.333 12C26.1239 12 24.333 13.7909 24.333 16C24.333 18.2091 26.1239 20 28.333 20Z" fill="#0A3D62"/>
<path opacity="0.4" d="M29.6667 34.6666C33.3486 34.6666 36.3333 32.8758 36.3333 30.6666C36.3333 28.4575 33.3486 26.6666 29.6667 26.6666C25.9848 26.6666 23 28.4575 23 30.6666C23 32.8758 25.9848 34.6666 29.6667 34.6666Z" fill="#0A3D62"/>
<path d="M20.3343 21.3333C23.2798 21.3333 25.6676 18.9455 25.6676 16C25.6676 13.0544 23.2798 10.6666 20.3343 10.6666C17.3888 10.6666 15.001 13.0544 15.001 16C15.001 18.9455 17.3888 21.3333 20.3343 21.3333Z" fill="#0A3D62"/>
<path d="M20.3343 36.0014C25.489 36.0014 29.6676 33.6136 29.6676 30.668C29.6676 27.7225 25.489 25.3347 20.3343 25.3347C15.1797 25.3347 11.001 27.7225 11.001 30.668C11.001 33.6136 15.1797 36.0014 20.3343 36.0014Z" fill="#0A3D62"/>
</svg>
