<svg width="48" height="48" viewBox="0 0 48 48" fill="none" xmlns="http://www.w3.org/2000/svg">
<rect x="0.5" y="0.5" width="47" height="47" rx="7.5" fill="#CAD4DC"/>
<rect x="0.5" y="0.5" width="47" height="47" rx="7.5" stroke="#0A3D62"/>
<path d="M17.1553 20.98C17.2367 21.76 17.7353 22.4073 18.4467 22.7347C19.9247 23.414 22.52 24.5 24 24.5C25.48 24.5 28.0753 23.4133 29.5533 22.7347C30.2647 22.408 30.7633 21.7593 30.8447 20.98C30.924 20.2153 31 19.072 31 17.5C31 15.928 30.924 14.7847 30.8447 14.02C30.7633 13.24 30.2647 12.5927 29.5527 12.2653C28.0753 11.586 25.4807 10.5 24 10.5C22.52 10.5 19.9247 11.5867 18.4467 12.2653C17.7353 12.592 17.2367 13.2407 17.1553 14.02C17.076 14.7847 17 15.928 17 17.5C17 19.072 17.076 20.2153 17.1553 20.98Z" fill="#A4B6C4"/>
<path d="M10.1553 33.1467C10.2367 33.9267 10.7353 34.5741 11.4473 34.9014C12.9247 35.5807 15.52 36.6667 17 36.6667C18.48 36.6667 21.0753 35.5801 22.5533 34.9014C23.2647 34.5747 23.7633 33.9261 23.8447 33.1467C23.924 32.3821 24 31.2387 24 29.6667C24 28.0947 23.924 26.9514 23.8447 26.1867C23.7633 25.4067 23.2647 24.7594 22.5533 24.4321C21.0753 23.7527 18.48 22.6667 17 22.6667C15.52 22.6667 12.9247 23.7534 11.4467 24.4321C10.7353 24.7587 10.2367 25.4074 10.1553 26.1867C10.076 26.9514 10 28.0947 10 29.6667C10 31.2387 10.076 32.3821 10.1553 33.1467Z" fill="#A4B6C4"/>
<path d="M24.1553 33.1467C24.2367 33.9267 24.7353 34.5741 25.4467 34.9014C26.9253 35.5807 29.52 36.6667 31 36.6667C32.48 36.6667 35.0753 35.5801 36.5533 34.9014C37.2647 34.5747 37.7633 33.9261 37.8447 33.1467C37.924 32.3821 38 31.2387 38 29.6667C38 28.0947 37.924 26.9514 37.8447 26.1867C37.7633 25.4067 37.2647 24.7594 36.5527 24.4321C35.0753 23.7527 32.4813 22.6667 31 22.6667C29.52 22.6667 26.9247 23.7534 25.4467 24.4321C24.7353 24.7587 24.2367 25.4074 24.1553 26.1867C24.076 26.9514 24 28.0947 24 29.6667C24 31.2387 24.076 32.3821 24.1553 33.1467Z" fill="#A4B6C4"/>
<path d="M17.1553 20.98C17.2367 21.76 17.7353 22.4073 18.4467 22.7347C19.9247 23.414 22.52 24.5 24 24.5C25.48 24.5 28.0753 23.4133 29.5533 22.7347C30.2647 22.408 30.7633 21.7593 30.8447 20.98C30.924 20.2153 31 19.072 31 17.5C31 15.928 30.924 14.7847 30.8447 14.02C30.7633 13.24 30.2647 12.5927 29.5527 12.2653C28.0753 11.586 25.4807 10.5 24 10.5C22.52 10.5 19.9247 11.5867 18.4467 12.2653C17.7353 12.592 17.2367 13.2407 17.1553 14.02C17.076 14.7847 17 15.928 17 17.5C17 19.072 17.076 20.2153 17.1553 20.98Z" stroke="#0A3D62" stroke-width="2" stroke-linejoin="round"/>
<path d="M17 13.3C17 13.3 22.5867 16.1 24 16.1C25.4133 16.1 31 13.3 31 13.3" stroke="#0A3D62" stroke-width="2" stroke-linejoin="round"/>
<path d="M24 16.1001V24.5001" stroke="#0A3D62" stroke-width="2" stroke-linecap="round" stroke-linejoin="round"/>
<path d="M10.1553 33.1467C10.2367 33.9267 10.7353 34.5741 11.4473 34.9014C12.9247 35.5807 15.52 36.6667 17 36.6667C18.48 36.6667 21.0753 35.5801 22.5533 34.9014C23.2647 34.5747 23.7633 33.9261 23.8447 33.1467C23.924 32.3821 24 31.2387 24 29.6667C24 28.0947 23.924 26.9514 23.8447 26.1867C23.7633 25.4067 23.2647 24.7594 22.5533 24.4321C21.0753 23.7527 18.48 22.6667 17 22.6667C15.52 22.6667 12.9247 23.7534 11.4467 24.4321C10.7353 24.7587 10.2367 25.4074 10.1553 26.1867C10.076 26.9514 10 28.0947 10 29.6667C10 31.2387 10.076 32.3821 10.1553 33.1467Z" stroke="#0A3D62" stroke-width="2" stroke-linejoin="round"/>
<path d="M10 25.4667C10 25.4667 15.5867 28.2667 17 28.2667C18.4133 28.2667 24 25.4667 24 25.4667" stroke="#0A3D62" stroke-width="2" stroke-linejoin="round"/>
<path d="M17 28.2667V36.6667" stroke="#0A3D62" stroke-width="2" stroke-linecap="round" stroke-linejoin="round"/>
<path d="M24.1553 33.1467C24.2367 33.9267 24.7353 34.5741 25.4467 34.9014C26.9253 35.5807 29.52 36.6667 31 36.6667C32.48 36.6667 35.0753 35.5801 36.5533 34.9014C37.2647 34.5747 37.7633 33.9261 37.8447 33.1467C37.924 32.3821 38 31.2387 38 29.6667C38 28.0947 37.924 26.9514 37.8447 26.1867C37.7633 25.4067 37.2647 24.7594 36.5527 24.4321C35.0753 23.7527 32.4813 22.6667 31 22.6667C29.52 22.6667 26.9247 23.7534 25.4467 24.4321C24.7353 24.7587 24.2367 25.4074 24.1553 26.1867C24.076 26.9514 24 28.0947 24 29.6667C24 31.2387 24.076 32.3821 24.1553 33.1467Z" stroke="#0A3D62" stroke-width="2" stroke-linejoin="round"/>
<path d="M24 25.4667C24 25.4667 29.5867 28.2667 31 28.2667C32.4133 28.2667 38 25.4667 38 25.4667" stroke="#0A3D62" stroke-width="2" stroke-linejoin="round"/>
<path d="M31 28.2667V36.6667" stroke="#0A3D62" stroke-width="2" stroke-linecap="round" stroke-linejoin="round"/>
</svg>
