<svg width="49" height="48" viewBox="0 0 49 48" fill="none" xmlns="http://www.w3.org/2000/svg">
<rect x="0.833008" y="0.5" width="47" height="47" rx="7.5" fill="#CAD4DC"/>
<rect x="0.833008" y="0.5" width="47" height="47" rx="7.5" stroke="#0A3D62"/>
<g clip-path="url(#clip0_264_435)">
<path d="M10.8063 25.4309C10.4581 25.0261 10.2666 24.5099 10.2666 23.976C10.2666 23.4421 10.4581 22.9259 10.8063 22.5211C11.3213 21.9223 11.8379 21.3333 12.356 20.7543C12.199 20.003 12.0482 19.2442 11.9034 18.4777C11.8039 17.9531 11.8958 17.4101 12.1626 16.9475C12.4293 16.4848 12.8532 16.1332 13.3571 15.9566C14.1038 15.6945 14.8459 15.4423 15.5834 15.2C15.8227 14.4701 16.0718 13.7371 16.3308 13.0011C16.5074 12.4981 16.8583 12.0749 17.3199 11.8083C17.7816 11.5416 18.3234 11.4491 18.8474 11.5474C19.6093 11.6907 20.3651 11.84 21.1148 11.9954C21.6847 11.4865 22.2638 10.979 22.852 10.4731C23.2567 10.125 23.7729 9.93347 24.3068 9.93347C24.8408 9.93347 25.357 10.125 25.7617 10.4731C26.356 10.9821 26.9381 11.4926 27.508 12.0046C28.2699 11.8446 29.0387 11.6922 29.8143 11.5474C30.3386 11.4485 30.881 11.5407 31.3431 11.8074C31.8053 12.0741 32.1565 12.4976 32.3331 13.0011C32.5922 13.7387 32.8413 14.4716 33.0806 15.2C33.8181 15.4438 34.5602 15.696 35.3068 15.9566C36.3468 16.3223 36.964 17.392 36.7606 18.4777C36.6143 19.2579 36.4611 20.0297 36.3011 20.7931C36.8192 21.3737 37.3373 21.9657 37.8554 22.5691C38.2039 22.9736 38.3958 23.4897 38.3962 24.0236C38.3966 24.5575 38.2056 25.0738 37.8577 25.4789C37.3442 26.0777 36.8276 26.6667 36.308 27.2457C36.4665 27.997 36.6173 28.7566 36.7606 29.5246C36.8595 30.0489 36.7673 30.5913 36.5006 31.0534C36.2339 31.5156 35.8103 31.8668 35.3068 32.0434C34.5602 32.3055 33.8181 32.5577 33.0806 32.8C32.8398 33.5314 32.5907 34.2644 32.3331 34.9989C32.1569 35.5028 31.8059 35.9268 31.3437 36.194C30.8815 36.4611 30.3389 36.5537 29.8143 36.4549C29.057 36.312 28.3012 36.1619 27.5468 36.0046C26.9769 36.515 26.3979 37.0225 25.8097 37.5269C25.405 37.875 24.8888 38.0665 24.3548 38.0665C23.8209 38.0665 23.3047 37.875 22.9 37.5269C22.3057 37.0179 21.7236 36.5074 21.1537 35.9954C20.3918 36.1554 19.623 36.3078 18.8474 36.4526C18.3231 36.5515 17.7807 36.4593 17.3185 36.1926C16.8564 35.9259 16.5052 35.5023 16.3286 34.9989C16.0724 34.2683 15.8232 33.5353 15.5811 32.8C14.8366 32.5559 14.0944 32.3045 13.3548 32.0457C12.8509 31.869 12.427 31.5175 12.1603 31.0548C11.8935 30.5922 11.8016 30.0492 11.9011 29.5246C12.0474 28.7429 12.2006 27.9703 12.3606 27.2069C11.8367 26.6199 11.3186 26.0279 10.8063 25.4309Z" fill="#A4B6C4"/>
<path d="M10.8063 25.4309C10.4581 25.0261 10.2666 24.5099 10.2666 23.976C10.2666 23.4421 10.4581 22.9259 10.8063 22.5211C11.3213 21.9223 11.8379 21.3333 12.356 20.7543C12.199 20.003 12.0482 19.2442 11.9034 18.4777C11.8039 17.9531 11.8958 17.4101 12.1626 16.9475C12.4293 16.4848 12.8532 16.1332 13.3571 15.9566C14.1038 15.6945 14.8459 15.4423 15.5834 15.2C15.8227 14.4701 16.0718 13.7371 16.3308 13.0011C16.5074 12.4981 16.8583 12.0749 17.3199 11.8083C17.7816 11.5416 18.3234 11.4491 18.8474 11.5474C19.6093 11.6907 20.3651 11.84 21.1148 11.9954C21.6847 11.4865 22.2638 10.979 22.852 10.4731C23.2567 10.125 23.7729 9.93347 24.3068 9.93347C24.8408 9.93347 25.357 10.125 25.7617 10.4731C26.356 10.9821 26.9381 11.4926 27.508 12.0046C28.2699 11.8446 29.0387 11.6922 29.8143 11.5474C30.3386 11.4485 30.881 11.5407 31.3431 11.8074C31.8053 12.0741 32.1565 12.4976 32.3331 13.0011C32.5922 13.7387 32.8413 14.4716 33.0806 15.2C33.8181 15.4438 34.5602 15.696 35.3068 15.9566C36.3468 16.3223 36.964 17.392 36.7606 18.4777C36.6143 19.2579 36.4611 20.0297 36.3011 20.7931C36.8192 21.3737 37.3373 21.9657 37.8554 22.5691C38.2039 22.9736 38.3958 23.4897 38.3962 24.0236C38.3966 24.5575 38.2056 25.0738 37.8577 25.4789C37.3442 26.0777 36.8276 26.6667 36.308 27.2457C36.4665 27.997 36.6173 28.7566 36.7606 29.5246C36.8595 30.0489 36.7673 30.5913 36.5006 31.0534C36.2339 31.5156 35.8103 31.8668 35.3068 32.0434C34.5602 32.3055 33.8181 32.5577 33.0806 32.8C32.8398 33.5314 32.5907 34.2644 32.3331 34.9989C32.1569 35.5028 31.8059 35.9268 31.3437 36.194C30.8815 36.4611 30.3389 36.5537 29.8143 36.4549C29.057 36.312 28.3012 36.1619 27.5468 36.0046C26.9769 36.515 26.3979 37.0225 25.8097 37.5269C25.405 37.875 24.8888 38.0665 24.3548 38.0665C23.8209 38.0665 23.3047 37.875 22.9 37.5269C22.3057 37.0179 21.7236 36.5074 21.1537 35.9954C20.3918 36.1554 19.623 36.3078 18.8474 36.4526C18.3231 36.5515 17.7807 36.4593 17.3185 36.1926C16.8564 35.9259 16.5052 35.5023 16.3286 34.9989C16.0724 34.2683 15.8232 33.5353 15.5811 32.8C14.8366 32.5559 14.0944 32.3045 13.3548 32.0457C12.8509 31.869 12.427 31.5175 12.1603 31.0548C11.8935 30.5922 11.8016 30.0492 11.9011 29.5246C12.0474 28.7429 12.2006 27.9703 12.3606 27.2069C11.8367 26.6199 11.3186 26.0279 10.8063 25.4309Z" stroke="#0A3D62" stroke-width="3" stroke-linejoin="round"/>
<path d="M18.8936 25.6869L22.5324 29.44C24.2467 24.5189 25.673 22.3589 28.905 19.4286" stroke="#0A3D62" stroke-width="3" stroke-linecap="round" stroke-linejoin="round"/>
</g>
<defs>
<clipPath id="clip0_264_435">
<rect width="32" height="32" fill="white" transform="translate(8.33301 8)"/>
</clipPath>
</defs>
</svg>
