<svg width="49" height="48" viewBox="0 0 49 48" fill="none" xmlns="http://www.w3.org/2000/svg">
<rect x="1.16699" y="0.5" width="47" height="47" rx="7.5" fill="#CAD4DC"/>
<rect x="1.16699" y="0.5" width="47" height="47" rx="7.5" stroke="#0A3D62"/>
<g clip-path="url(#clip0_268_891)">
<path d="M32.6666 13.7142H16.6666C16.0604 13.7142 15.479 13.955 15.0503 14.3837C14.6217 14.8124 14.3809 15.3937 14.3809 15.9999V31.9999C14.3809 32.6062 14.6217 33.1875 15.0503 33.6162C15.479 34.0448 16.0604 34.2857 16.6666 34.2857H32.6666C33.2728 34.2857 33.8542 34.0448 34.2828 33.6162C34.7115 33.1875 34.9523 32.6062 34.9523 31.9999V15.9999C34.9523 15.3937 34.7115 14.8124 34.2828 14.3837C33.8542 13.955 33.2728 13.7142 32.6666 13.7142Z" fill="#A4B6C4"/>
<path d="M32.6668 13.7143H16.6668C16.0605 13.7143 15.4792 13.9551 15.0505 14.3838C14.6219 14.8124 14.381 15.3938 14.381 16V32C14.381 32.6062 14.6219 33.1876 15.0505 33.6162C15.4792 34.0449 16.0605 34.2857 16.6668 34.2857H32.6668C33.273 34.2857 33.8543 34.0449 34.283 33.6162C34.7116 33.1876 34.9525 32.6062 34.9525 32V16C34.9525 15.3938 34.7116 14.8124 34.283 14.3838C33.8543 13.9551 33.273 13.7143 32.6668 13.7143ZM14.381 28.1897H10.2188H14.381ZM39.1148 28.1897H34.9525H39.1148ZM14.381 19.8103H10.2188H14.381ZM39.1148 19.8103H34.9525H39.1148ZM20.477 13.7143V9.552V13.7143ZM20.477 38.448V34.2857V38.448ZM28.8565 13.7143V9.552V13.7143ZM28.8565 38.448V34.2857V38.448Z" fill="#A4B6C4"/>
<path d="M14.381 28.1897H10.2188M39.1148 28.1897H34.9525M14.381 19.8103H10.2188M39.1148 19.8103H34.9525M20.477 13.7143V9.552M20.477 38.448V34.2857M28.8565 13.7143V9.552M28.8565 38.448V34.2857M32.6668 13.7143H16.6668C16.0605 13.7143 15.4792 13.9551 15.0505 14.3838C14.6219 14.8124 14.381 15.3938 14.381 16V32C14.381 32.6062 14.6219 33.1876 15.0505 33.6162C15.4792 34.0449 16.0605 34.2857 16.6668 34.2857H32.6668C33.273 34.2857 33.8543 34.0449 34.283 33.6162C34.7116 33.1876 34.9525 32.6062 34.9525 32V16C34.9525 15.3938 34.7116 14.8124 34.283 14.3838C33.8543 13.9551 33.273 13.7143 32.6668 13.7143Z" stroke="#0A3D62" stroke-width="3" stroke-linecap="round" stroke-linejoin="round"/>
<path d="M19.3343 24.5714C18.692 24.4617 18.692 23.5383 19.3343 23.4286C20.4726 23.2288 21.5258 22.6952 22.3602 21.8954C23.1945 21.0957 23.7722 20.066 24.02 18.9371L24.0611 18.7611C24.1983 18.1257 25.1057 18.1211 25.2497 18.7543L25.2954 18.96C25.5518 20.0847 26.135 21.1084 26.9715 21.9027C27.808 22.6969 28.8607 23.2262 29.9971 23.424C30.644 23.5383 30.644 24.464 29.9971 24.576C28.861 24.7736 27.8085 25.3026 26.972 26.0964C26.1355 26.8902 25.5522 27.9135 25.2954 29.0377L25.2497 29.2434C25.1057 29.8788 24.1983 29.8743 24.0611 29.2388L24.0223 29.0628C23.774 27.9341 23.1957 26.9047 22.361 26.1053C21.5262 25.306 20.4727 24.7706 19.3343 24.5714Z" fill="#A4B6C4"/>
<path d="M19.3343 24.5714C18.692 24.4617 18.692 23.5383 19.3343 23.4286C20.4726 23.2288 21.5258 22.6952 22.3602 21.8954C23.1945 21.0957 23.7722 20.066 24.02 18.9371L24.0611 18.7611C24.1983 18.1257 25.1057 18.1211 25.2497 18.7543L25.2954 18.96C25.5518 20.0847 26.135 21.1084 26.9715 21.9027C27.808 22.6969 28.8607 23.2262 29.9971 23.424C30.644 23.5383 30.644 24.464 29.9971 24.576C28.861 24.7736 27.8085 25.3026 26.972 26.0964C26.1355 26.8902 25.5522 27.9135 25.2954 29.0377L25.2497 29.2434C25.1057 29.8788 24.1983 29.8743 24.0611 29.2388L24.0223 29.0628C23.774 27.9341 23.1957 26.9047 22.361 26.1053C21.5262 25.306 20.4727 24.7706 19.3343 24.5714Z" fill="#A4B6C4" stroke="#0A3D62" stroke-width="3" stroke-linecap="round" stroke-linejoin="round"/>
</g>
<defs>
<clipPath id="clip0_268_891">
<rect width="32" height="32" fill="white" transform="translate(8.66699 8)"/>
</clipPath>
</defs>
</svg>
